<svg xmlns="http://www.w3.org/2000/svg" width="512" height="512" viewBox="0 0 612 612"><g fill="#b08d57"><path d="M172.125 296.438H114.75v133.875h57.375c21.038 0 38.25-17.213 38.25-38.25v-57.375c0-21.038-17.212-38.25-38.25-38.25zm19.125 95.624c0 11.475-7.65 19.125-19.125 19.125h-38.25v-95.625h38.25c11.475 0 19.125 7.65 19.125 19.125v57.375zm95.625-95.624H267.75c-21.038 0-38.25 17.213-38.25 38.25v57.375c0 21.037 17.212 38.25 38.25 38.25h19.125c21.037 0 38.25-17.213 38.25-38.25v-57.375c0-21.038-17.213-38.25-38.25-38.25zM306 392.062c0 11.475-7.65 19.125-19.125 19.125H267.75c-11.475 0-19.125-7.65-19.125-19.125v-57.375c0-11.475 7.65-19.125 19.125-19.125h19.125c11.475 0 19.125 7.65 19.125 19.125v57.375zm76.5-76.5h19.125c11.475 0 19.125 7.65 19.125 19.125h19.125c0-21.037-17.213-38.25-38.25-38.25H382.5c-21.037 0-38.25 17.213-38.25 38.25v57.375c0 21.037 17.213 38.25 38.25 38.25h19.125c21.037 0 38.25-17.213 38.25-38.25H420.75c0 11.475-7.65 19.125-19.125 19.125H382.5c-11.475 0-19.125-7.65-19.125-19.125v-57.375c0-11.474 7.65-19.125 19.125-19.125z"/><path d="M554.625 239.062h-191.25v-57.375L248.625 47.812H38.25C17.212 47.812 0 65.025 0 86.062v439.875c0 21.037 17.212 38.25 38.25 38.25h286.875c21.037 0 38.25-17.213 38.25-38.25v-38.25h191.25c32.513 0 57.375-24.862 57.375-57.375V296.438c0-32.513-24.862-57.376-57.375-57.376zm-306-162.562l89.888 105.188H267.75c-9.562 0-19.125-9.562-19.125-19.125V76.5zm95.625 449.438c0 9.562-7.65 19.125-19.125 19.125H38.25c-9.562 0-19.125-7.65-19.125-19.125V86.062c0-9.562 7.65-19.125 19.125-19.125H229.5v95.625c0 21.038 17.212 38.25 38.25 38.25h76.5v38.25h-229.5c-32.513 0-57.375 24.862-57.375 57.375v133.875c0 32.513 24.862 57.375 57.375 57.375h229.5v38.251zm248.625-95.626c0 21.037-17.213 38.25-38.25 38.25H114.75c-21.038 0-38.25-17.213-38.25-38.25V296.438c0-21.038 17.212-38.25 38.25-38.25h439.875c21.037 0 38.25 17.212 38.25 38.25v133.874z"/><path d="M535.5 296.438l-28.688 49.724-28.687-49.724H459l38.25 66.937L459 430.312h19.125l28.687-49.724 28.688 49.724h19.125l-38.25-66.937 38.25-66.937z"/></g></svg>